Coordinates
version=1
nRows=16
nColumns=22
inDegrees=yes

Units are S.I. units (second, meters, Newtons, ...)
If the header above contains a line with 'inDegrees', this indicates whether rotational values are in degrees (yes) or radians (no).

endheader
time	pelvis_tilt	pelvis_list	pelvis_rotation	pelvis_tx	pelvis_ty	pelvis_tz	hip_flexion_r	hip_adduction_r	hip_rotation_r	knee_angle_r	ankle_angle_r	subtalar_angle_r	hip_flexion_l	hip_adduction_l	hip_rotation_l	knee_angle_l	ankle_angle_l	subtalar_angle_l	lumbar_extension	lumbar_bending	lumbar_rotation
      0.01000000	     -6.40614247	     -2.59508178	     -0.88745691	     -1.13564774	      0.95566463	      0.02354398	      9.92344422	      2.21844904	     -2.50391105	    -12.02832239	      9.55031832	     -1.84972195	     10.54564482	     -5.51375225	     -8.73897150	    -13.98441043	      9.81680599	     -1.05636680	     -1.52592659	      0.49832259	      0.49971346
      0.02000000	     -6.41356633	     -2.58898545	     -0.93862518	     -1.13559497	      0.95565023	      0.02365748	      9.92845479	      2.22548618	     -2.43584232	    -12.02217461	      9.52727730	     -1.92113224	     10.55966743	     -5.52539681	     -8.81855507	    -14.01984011	      9.85573825	     -0.95899745	     -1.54455714	      0.49194344	      0.52364376
      0.03000000	     -6.41974474	     -2.58704005	     -0.96314557	     -1.13552695	      0.95563650	      0.02372161	      9.94011259	      2.22889941	     -2.42090424	    -12.03720887	      9.52807079	     -1.92821869	     10.56285617	     -5.52805791	     -8.81518872	    -14.03035518	      9.85993392	     -0.95106428	     -1.56884381	      0.49418530	      0.50195521
      0.04000000	     -6.43022505	     -2.58536651	     -0.99345385	     -1.13545948	      0.95561162	      0.02379815	      9.95505664	      2.23462164	     -2.39161334	    -12.04806918	      9.53368174	     -1.93806101	     10.57726455	     -5.53523255	     -8.83480419	    -14.05575808	      9.87293128	     -0.94101525	     -1.59407239	      0.49765342	      0.49030078
      0.05000000	     -6.44347056	     -2.58197269	     -1.01829002	     -1.13534476	      0.95559101	      0.02385716	      9.96034268	      2.23551588	     -2.39364305	    -12.04130607	      9.53510575	     -1.93873664	     10.58047838	     -5.53550151	     -8.83441804	    -14.05759340	      9.87409360	     -0.94027289	     -1.61094495	      0.50031458	      0.48329041
      0.06000000	     -6.45848213	     -2.58363518	     -1.06098850	     -1.13524665	      0.95555836	      0.02395315	      9.98114597	      2.24792524	     -2.34065535	    -12.05966432	      9.54301876	     -1.94519321	     10.59855933	     -5.55160047	     -8.88996503	    -14.08814150	      9.89588978	     -0.93306234	     -1.62877626	      0.51178268	      0.46441188
      0.07000000	     -6.47242004	     -2.57937355	     -1.08793941	     -1.13511185	      0.95553878	      0.02401378	      9.98567265	      2.24809847	     -2.34309552	    -12.05211016	      9.54453738	     -1.94569129	     10.60044733	     -5.55127530	     -8.88989762	    -14.09101324	      9.89713688	     -0.93231038	     -1.64246777	      0.51660289	      0.45841139
      0.08000000	     -6.50552394	     -2.58319348	     -1.15263968	     -1.13498002	      0.95548097	      0.02414568	     10.01726127	      2.26826647	     -2.26629603	    -12.05573169	      9.55358055	     -1.95374967	     10.63397713	     -5.57686998	     -8.98423221	    -14.12683229	      9.93558877	     -0.91571084	     -1.62889555	      0.53187752	      0.47454838
      0.09000000	     -6.51979768	     -2.58011852	     -1.18306587	     -1.13482547	      0.95546141	      0.02420886	     10.02643275	      2.27069482	     -2.25437726	    -12.05983367	      9.55300724	     -1.95505568	     10.63206692	     -5.57914721	     -8.99699298	    -14.12560833	      9.94005969	     -0.91171496	     -1.63322446	      0.54173558	      0.44137733
      0.10000000	     -6.53169958	     -2.57565253	     -1.21137281	     -1.13468292	      0.95544865	      0.02425779	     10.02981172	      2.26997168	     -2.25507771	    -12.05401382	      9.55431487	     -1.95535396	     10.63106659	     -5.57793922	     -8.99806968	    -14.12941821	      9.94117715	     -0.91112041	     -1.64264578	      0.55010382	      0.42819473
      0.11000000	     -6.55360194	     -2.58242278	     -1.25652022	     -1.13450849	      0.95541543	      0.02434448	     10.03622951	      2.28862448	     -2.19099373	    -12.04163648	      9.56023324	     -1.95707831	     10.64653948	     -5.60062065	     -9.07507623	    -14.15201508	      9.97225444	     -0.90288718	     -1.62898324	      0.57262467	      0.39517875
      0.12000000	     -6.56365053	     -2.57837444	     -1.28545556	     -1.13434550	      0.95540688	      0.02438458	     10.03737198	      2.28775306	     -2.19244945	    -12.03870428	      9.56040514	     -1.95723275	     10.64184269	     -5.59902989	     -9.07457682	    -14.15592362	      9.97316436	     -0.90224936	     -1.63285920	      0.58129608	      0.38079473
      0.13000000	     -6.57613987	     -2.58066752	     -1.31147056	     -1.13414285	      0.95539118	      0.02442922	     10.03731177	      2.29546116	     -2.17141723	    -12.03680102	      9.56079326	     -1.95676220	     10.63085771	     -5.60664614	     -9.10526630	    -14.14559844	      9.98607495	     -0.90135374	     -1.62396979	      0.59596716	      0.33136309
      0.14000000	     -6.58860085	     -2.58473024	     -1.33951228	     -1.13395157	      0.95537608	      0.02444862	     10.02766740	      2.30345812	     -2.14757796	    -12.01472012	      9.56262220	     -1.95523646	     10.62664348	     -5.61561399	     -9.14259856	    -14.14653056	     10.00551119	     -0.89823184	     -1.61969984	      0.61558966	      0.31552638
      0.15000000	     -6.59683511	     -2.58254476	     -1.35850377	     -1.13376957	      0.95536315	      0.02445443	     10.02440749	      2.30182675	     -2.14844923	    -12.01222080	      9.56282770	     -1.95513000	     10.62150081	     -5.61388020	     -9.14279386	    -14.15202682	     10.00670037	     -0.89758201	     -1.62014952	      0.62336906	      0.31073308
      0.16000000	     -6.60705266	     -2.58817335	     -1.38039371	     -1.13356068	      0.95534574	      0.02446304	     10.01043533	      2.31024984	     -2.13089059	    -11.98981572	      9.56605135	     -1.95230230	     10.60881025	     -5.62305665	     -9.18087613	    -14.14163650	     10.02885938	     -0.89433048	     -1.61392986	      0.63994863	      0.30737377
